HIERARCHY
ROOT Cow_ROOTSHJnt
{
	OFFSET 0.000000 66.749710 104.418190
	CHANNELS 6 Xposition Yposition Zposition Xrotation Yrotation Zrotation
	JOINT Cow_Spine_01SHJnt
	{
		OFFSET 0.000000 -20.599148 -0.645164
		CHANNELS 3 Xrotation Yrotation Zrotation
		JOINT Cow_Spine_02SHJnt
		{
			OFFSET -0.000000 -20.593330 -0.659470
			CHANNELS 3 Xrotation Yrotation Zrotation
			JOINT Cow_Spine_03SHJnt
			{
				OFFSET -0.000000 -20.606550 -0.983307
				CHANNELS 3 Xrotation Yrotation Zrotation
				JOINT Cow_Spine_04SHJnt
				{
					OFFSET -0.000000 -20.599676 1.374176
					CHANNELS 3 Xrotation Yrotation Zrotation
					JOINT Cow_Spine_TopSHJnt
					{
						OFFSET -0.000000 -20.599678 0.913795
						CHANNELS 3 Xrotation Yrotation Zrotation
						JOINT Cow_l_Clavicle_01_01SHJnt
						{
							OFFSET 11.171912 0.000000 0.000000
							CHANNELS 3 Xrotation Yrotation Zrotation
							JOINT Cow_l_FrontLeg_HipSHJnt
							{
								OFFSET 7.976342 -4.953094 -13.093445
								CHANNELS 3 Xrotation Yrotation Zrotation
								JOINT Cow_l_FrontLeg_Knee1SHJnt
								{
									OFFSET 0.000006 -3.929440 -54.085663
									CHANNELS 3 Xrotation Yrotation Zrotation
									JOINT Cow_l_FrontLeg_Knee2SHJnt
									{
										OFFSET 0.000000 1.964958 -22.377888
										CHANNELS 3 Xrotation Yrotation Zrotation
										JOINT Cow_l_FrontLeg_AnkleSHJnt
										{
											OFFSET 0.000000 -0.663105 -5.827117
											CHANNELS 3 Xrotation Yrotation Zrotation
											JOINT Cow_l_FrontLeg_BallSHJnt
											{
												OFFSET 0.000006 -5.970051 -9.033520
												CHANNELS 3 Xrotation Yrotation Zrotation
												JOINT Cow_l_FrontLeg_ToeSHJnt
												{
													OFFSET 0.000006 -7.439106 -0.000235
													CHANNELS 3 Xrotation Yrotation Zrotation
													End Site
													{
														OFFSET 7.439106 0.000004 0.000000
													}
												}
											}
										}
									}
								}
							}
						}
						JOINT Cow_r_Clavicle_01_01SHJnt
						{
							OFFSET -11.171912 0.000000 0.000000
							CHANNELS 3 Xrotation Yrotation Zrotation
							JOINT Cow_r_FrontLeg_HipSHJnt
							{
								OFFSET -7.976342 -4.953094 -13.093445
								CHANNELS 3 Xrotation Yrotation Zrotation
								JOINT Cow_r_FrontLeg_Knee1SHJnt
								{
									OFFSET 0.000006 -3.929440 -54.085663
									CHANNELS 3 Xrotation Yrotation Zrotation
									JOINT Cow_r_FrontLeg_Knee2SHJnt
									{
										OFFSET 0.000000 1.964958 -22.377888
										CHANNELS 3 Xrotation Yrotation Zrotation
										JOINT Cow_r_FrontLeg_AnkleSHJnt
										{
											OFFSET 0.000000 -0.663105 -5.827118
											CHANNELS 3 Xrotation Yrotation Zrotation
											JOINT Cow_r_FrontLeg_BallSHJnt
											{
												OFFSET 0.000006 -5.970051 -9.033520
												CHANNELS 3 Xrotation Yrotation Zrotation
												JOINT Cow_r_FrontLeg_ToeSHJnt
												{
													OFFSET 0.000006 -7.439106 -0.000235
													CHANNELS 3 Xrotation Yrotation Zrotation
													End Site
													{
														OFFSET 7.439106 0.000004 0.000000
													}
												}
											}
										}
									}
								}
							}
						}
						JOINT Cow_Neck_01SHJnt
						{
							OFFSET 0.000000 -25.141075 -3.042923
							CHANNELS 3 Xrotation Yrotation Zrotation
							JOINT Cow_Neck_02SHJnt
							{
								OFFSET -0.000000 -19.440186 5.198975
								CHANNELS 3 Xrotation Yrotation Zrotation
								JOINT Cow_Neck_TopSHJnt
								{
									OFFSET -0.000000 -15.102203 2.823219
									CHANNELS 3 Xrotation Yrotation Zrotation
									JOINT Cow_Head_JawSHJnt
									{
										OFFSET 0.000000 -35.995033 -11.047020
										CHANNELS 3 Xrotation Yrotation Zrotation
										JOINT Cow_Head_JawEndSHJnt
										{
											OFFSET 0.000001 -14.239838 -8.004066
											CHANNELS 3 Xrotation Yrotation Zrotation
											End Site
											{
												OFFSET 0.000001 -14.351303 -7.802444
											}
										}
									}
									JOINT Cow_Head_TopSHJnt
									{
										OFFSET -0.000001 -27.576538 24.239853
										CHANNELS 3 Xrotation Yrotation Zrotation
										JOINT Cow_l_Ear_01_01SHJnt
										{
											OFFSET 14.495198 16.691696 -8.068298
											CHANNELS 3 Xrotation Yrotation Zrotation
											JOINT Cow_l_Ear_01_02SHJnt
											{
												OFFSET 6.722663 2.771584 1.751846
												CHANNELS 3 Xrotation Yrotation Zrotation
												JOINT Cow_l_Ear_01_03SHJnt
												{
													OFFSET 10.716763 -0.206581 1.540665
													CHANNELS 3 Xrotation Yrotation Zrotation
													End Site
													{
														OFFSET 0.679575 -10.457191 -2.729607
													}
												}
											}
										}
										JOINT Cow_r_Ear_01_01SHJnt
										{
											OFFSET -14.495194 16.691696 -8.068306
											CHANNELS 3 Xrotation Yrotation Zrotation
											JOINT Cow_r_Ear_01_02SHJnt
											{
												OFFSET -6.722663 2.771584 1.751839
												CHANNELS 3 Xrotation Yrotation Zrotation
												JOINT Cow_r_Ear_01_03SHJnt
												{
													OFFSET -10.716763 -0.206581 1.540665
													CHANNELS 3 Xrotation Yrotation Zrotation
													End Site
													{
														OFFSET -0.679575 -10.457191 -2.729607
													}
												}
											}
										}
									}
								}
							}
							JOINT Cow_NeckSkin_01_01SHJnt
							{
								OFFSET 0.000001 -3.570503 -28.699036
								CHANNELS 3 Xrotation Yrotation Zrotation
								JOINT Cow_NeckSkin_01_02SHJnt
								{
									OFFSET 0.000001 -3.287460 -13.726460
									CHANNELS 3 Xrotation Yrotation Zrotation
									End Site
									{
										OFFSET 0.000000 -13.726448 3.287464
									}
								}
							}
						}
					}
				}
			}
		}
	}
	JOINT Cow_l_HindLeg_HipSHJnt
	{
		OFFSET 22.626928 3.434624 -17.868790
		CHANNELS 3 Xrotation Yrotation Zrotation
		JOINT Cow_l_HindLeg_Knee1SHJnt
		{
			OFFSET -4.433996 11.629982 -42.020042
			CHANNELS 3 Xrotation Yrotation Zrotation
			JOINT Cow_l_HindLeg_Knee2SHJnt
			{
				OFFSET 0.572979 -5.223473 -32.422234
				CHANNELS 3 Xrotation Yrotation Zrotation
				JOINT Cow_l_HindLeg_AnkleSHJnt
				{
					OFFSET 0.961411 -2.095169 -7.270233
					CHANNELS 3 Xrotation Yrotation Zrotation
					JOINT Cow_l_HindLeg_BallSHJnt
					{
						OFFSET 0.000000 -3.795708 -4.836911
						CHANNELS 3 Xrotation Yrotation Zrotation
						JOINT Cow_l_HindLeg_ToeSHJnt
						{
							OFFSET 0.000000 -6.175804 0.000002
							CHANNELS 3 Xrotation Yrotation Zrotation
							End Site
							{
								OFFSET 6.175808 0.000000 0.000000
							}
						}
					}
				}
			}
		}
	}
	JOINT Cow_r_HindLeg_HipSHJnt
	{
		OFFSET -22.626928 3.434624 -17.868790
		CHANNELS 3 Xrotation Yrotation Zrotation
		JOINT Cow_r_HindLeg_Knee1SHJnt
		{
			OFFSET 4.434002 11.629982 -42.020042
			CHANNELS 3 Xrotation Yrotation Zrotation
			JOINT Cow_r_HindLeg_Knee2SHJnt
			{
				OFFSET -0.572975 -5.223473 -32.422234
				CHANNELS 3 Xrotation Yrotation Zrotation
				JOINT Cow_r_HindLeg_AnkleSHJnt
				{
					OFFSET -0.961411 -2.095169 -7.270234
					CHANNELS 3 Xrotation Yrotation Zrotation
					JOINT Cow_r_HindLeg_BallSHJnt
					{
						OFFSET 0.000000 -3.795708 -4.836910
						CHANNELS 3 Xrotation Yrotation Zrotation
						JOINT Cow_r_HindLeg_ToeSHJnt
						{
							OFFSET 0.000000 -6.175804 0.000002
							CHANNELS 3 Xrotation Yrotation Zrotation
							End Site
							{
								OFFSET 6.175806 0.000000 0.000001
							}
						}
					}
				}
			}
		}
	}
	JOINT Cow_Tail_01_01SHJnt
	{
		OFFSET 0.000000 20.837936 23.982246
		CHANNELS 3 Xrotation Yrotation Zrotation
		JOINT Cow_Tail_01_02SHJnt
		{
			OFFSET -0.000000 7.960037 -11.072281
			CHANNELS 3 Xrotation Yrotation Zrotation
			JOINT Cow_Tail_01_03SHJnt
			{
				OFFSET -0.000000 2.666931 -14.319489
				CHANNELS 3 Xrotation Yrotation Zrotation
				JOINT Cow_Tail_01_04SHJnt
				{
					OFFSET -0.000000 -1.425102 -14.386597
					CHANNELS 3 Xrotation Yrotation Zrotation
					JOINT Cow_Tail_01_05SHJnt
					{
						OFFSET -0.000000 -1.119919 -14.413574
						CHANNELS 3 Xrotation Yrotation Zrotation
						JOINT Cow_Tail_01_06SHJnt
						{
							OFFSET -0.000000 0.772911 -13.741093
							CHANNELS 3 Xrotation Yrotation Zrotation
							JOINT Cow_Tail_01_07SHJnt
							{
								OFFSET -0.000000 3.111671 -14.118168
								CHANNELS 3 Xrotation Yrotation Zrotation
								End Site
								{
									OFFSET -0.000000 14.118164 3.111679
								}
							}
						}
					}
				}
			}
		}
	}
	JOINT Cow_Udder_01_01SHJnt
	{
		OFFSET 0.000000 -7.188259 -41.393276
		CHANNELS 3 Xrotation Yrotation Zrotation
		JOINT Cow_Udder_01_02SHJnt
		{
			OFFSET 0.000001 3.137054 -13.240067
			CHANNELS 3 Xrotation Yrotation Zrotation
			End Site
			{
				OFFSET 0.000001 13.240070 3.137051
			}
		}
	}
}
MOTION
Frames: 4
Frame Time: 0.033333
0.000000 66.749695 104.418182 -0.000000 0.000000 -0.000000 -0.000000 0.000000 -0.000000 -0.000007 -0.000000 0.000003 0.000000 0.000010 -0.000000 0.000000 0.000000 0.000000 0.000000 0.000000 0.000000 -0.000000 0.000000 0.000000 0.000000 -0.000000 -0.000000 0.000000 0.000000 0.000000 0.000000 0.000003 0.000002 -0.000000 0.000003 -0.000000 0.000000 -0.000005 0.000000 0.000000 0.000000 0.000000 -0.000000 0.000000 0.000000 0.000000 -0.000000 -0.000000 0.000000 -0.000000 -0.000000 0.000000 0.000003 0.000002 0.000000 0.000003 -0.000000 0.000000 -0.000005 0.000000 0.000000 -0.000000 0.000000 -0.000000 -0.000002 0.000007 -0.000000 -0.000003 -0.000000 -0.000002 -0.000004 -0.000007 -25.243322 -0.000000 0.000000 0.000002 0.000000 -0.000000 -0.000002 0.000009 0.000011 -0.000003 -0.000000 -0.000001 0.000002 -0.000001 -0.000000 0.000001 0.000000 -0.000000 -0.000008 0.000001 0.000003 -0.000001 0.000001 0.000001 -0.000000 0.000000 0.000000 -0.000005 -0.000003 -0.000013 0.000001 0.000007 -0.000002 -0.000003 -0.000001 0.000000 -0.000000 0.000001 0.000002 0.000002 -0.000002 -0.000000 0.000002 -0.000001 0.000001 0.000000 -0.000000 0.000000 0.000000 -0.000000 -0.000000 0.000003 0.000000 -0.000003 0.000001 -0.000001 -0.000000 0.000006 -0.000002 -0.000001 -0.000000 -0.000001 -0.000002 -0.000000 -0.000000 -0.000000 -0.000000 -0.000000 -0.000000 -0.000002 -0.000000 -0.000000 -0.000002 -0.000000 -0.000000 0.000002 0.000000 0.000000 -0.000000 0.000000 0.000000 -0.000001 -0.000000 0.000000 -0.000001 0.000000 -0.000000 0.000001 0.000000 0.000000 0.000000 -0.000000 -0.000000 0.000000 0.000000 0.000000 
0.000000 66.749695 104.418182 -0.000000 0.000000 -0.000000 -0.000000 0.000000 -0.000000 -0.000007 -0.000000 0.000003 0.000000 0.000010 -0.000000 0.000000 0.000000 0.000000 0.000000 0.000000 0.000000 -0.000000 0.000000 0.000000 0.000000 -0.000000 -0.000000 0.000000 0.000000 0.000000 0.000000 0.000003 0.000002 -0.000000 0.000003 -0.000000 0.000000 -0.000005 0.000000 0.000000 0.000000 0.000000 -0.000000 0.000000 0.000000 0.000000 -0.000000 -0.000000 0.000000 -0.000000 -0.000000 0.000000 0.000003 0.000002 0.000000 0.000003 -0.000000 0.000000 -0.000005 0.000000 0.000000 -0.000000 0.000000 -0.000000 -0.000002 0.000007 -0.000000 -0.000003 -0.000000 -0.000002 -0.000004 -0.000007 -25.243322 -0.000000 0.000000 0.000002 0.000000 -0.000000 -0.000002 0.000009 0.000011 -0.000003 -0.000000 -0.000001 0.000002 -0.000001 -0.000000 0.000001 0.000000 -0.000000 -0.000008 0.000001 0.000003 -0.000001 0.000001 0.000001 -0.000000 0.000000 0.000000 -0.000005 -0.000003 -0.000013 0.000001 0.000007 -0.000002 -0.000003 -0.000001 0.000000 -0.000000 0.000001 0.000002 0.000002 -0.000002 -0.000000 0.000002 -0.000001 0.000001 0.000000 -0.000000 0.000000 0.000000 -0.000000 -0.000000 0.000003 0.000000 -0.000003 0.000001 -0.000001 -0.000000 0.000006 -0.000002 -0.000001 -0.000000 -0.000001 -0.000002 -0.000000 -0.000000 -0.000000 -0.000000 -0.000000 -0.000000 -0.000002 -0.000000 -0.000000 -0.000002 -0.000000 -0.000000 0.000002 0.000000 0.000000 -0.000000 0.000000 0.000000 -0.000001 -0.000000 0.000000 -0.000001 0.000000 -0.000000 0.000001 0.000000 0.000000 0.000000 -0.000000 -0.000000 0.000000 0.000000 0.000000 
0.000000 66.749695 104.418182 0.007046 0.000000 -0.000000 -0.002823 0.000053 0.000003 0.001476 -0.000000 0.000000 -0.008638 0.000010 0.000000 -0.002245 -0.000000 0.000000 0.047312 -0.000000 -0.000001 0.000000 -0.000000 0.000000 -0.054699 0.000003 -0.000014 0.019385 0.000000 -0.000000 -0.012314 0.000003 -0.000000 0.005400 -0.000003 0.000000 0.000000 -0.000005 0.000000 0.000000 0.000000 -0.000000 0.000000 -0.000000 0.000000 -0.054699 0.000003 -0.000014 0.019385 0.000000 -0.000000 -0.012315 0.000003 -0.000000 0.005400 -0.000003 0.000000 0.000000 -0.000005 0.000000 0.000000 -0.000000 0.000000 -0.009999 -0.000031 -0.000511 0.033319 -0.000106 -0.000610 0.071980 -0.000211 -0.000078 -25.154854 -0.000007 0.000002 0.000000 0.000000 -0.000000 -0.000005 0.000009 0.000011 -0.050235 -0.091918 0.338963 -0.050236 -0.091922 0.338969 -0.000001 0.000000 -0.000000 -0.051244 0.093777 -0.345807 -0.051241 0.093783 -0.345817 0.000001 0.000001 -0.000000 0.000001 0.000002 0.000007 0.000001 0.000007 -0.000002 -0.009472 -0.000259 0.000301 0.002035 0.000571 -0.000058 -0.001018 -0.000578 -0.000353 0.001419 0.000265 0.000109 0.000000 -0.000000 0.000000 0.000000 0.000000 0.000000 -0.009475 0.000249 -0.000297 0.002028 -0.000567 0.000061 -0.001019 0.000581 0.000348 0.001417 -0.000268 -0.000111 -0.000000 -0.000000 -0.000000 -0.000000 -0.000000 0.000000 -0.000002 -0.000000 -0.000000 -0.000001 -0.000000 -0.000000 -0.003125 -0.000612 0.001202 -0.003127 -0.000644 0.001189 -0.003126 -0.000838 0.001061 -0.003126 -0.000955 0.000951 0.000000 0.000000 0.000000 0.000000 -0.000000 -0.000000 0.000000 0.000000 0.000000 
0.000000 66.749695 104.418182 0.027487 0.000000 -0.000000 -0.010921 -0.000027 0.000002 0.005810 -0.000000 -0.000000 -0.033661 0.000010 0.000000 -0.008709 -0.000000 0.000001 0.184529 -0.000000 -0.000001 -0.000000 0.000000 0.000000 -0.212754 0.000004 -0.000000 0.074409 -0.000002 0.000003 -0.047215 0.000000 0.000002 0.021021 0.000007 0.000003 -0.000000 -0.000005 0.000000 0.000000 0.000000 -0.000000 -0.000000 0.000000 -0.000000 -0.212754 0.000004 -0.000000 0.074409 -0.000002 0.000003 -0.047215 0.000000 0.000002 0.021021 0.000007 0.000003 0.000000 -0.000005 0.000000 0.000000 -0.000000 0.000000 -0.038900 -0.000086 -0.001981 0.129910 -0.000383 -0.002376 0.280787 -0.000861 -0.000332 -24.898184 0.000006 -0.000001 0.000000 0.000000 0.000000 -0.000000 0.000009 0.000011 -0.187640 -0.350188 1.285206 -0.187637 -0.350192 1.285211 0.000000 0.000001 -0.000001 -0.193613 0.361667 -1.327057 -0.193619 0.361671 -1.327061 -0.000002 -0.000001 0.000000 0.000000 0.000002 0.000007 0.000001 0.000007 -0.000002 -0.036932 -0.001005 0.001160 0.007928 0.002231 -0.000220 -0.003981 -0.002256 -0.001373 0.005502 0.001025 0.000433 0.000000 -0.000000 0.000000 0.000000 -0.000000 0.000000 -0.036929 0.001004 -0.001163 0.007936 -0.002232 0.000221 -0.003979 0.002260 0.001370 0.005505 -0.001026 -0.000434 -0.000000 -0.000000 0.000000 -0.000000 -0.000000 -0.000000 -0.000003 -0.000000 -0.000000 -0.000002 -0.000000 -0.000000 -0.012203 -0.002418 0.004711 -0.012209 -0.002504 0.004658 -0.012209 -0.003276 0.004161 -0.012207 -0.003762 0.003727 -0.000001 -0.000000 0.000000 0.000001 -0.000000 -0.000000 0.000001 -0.000000 -0.000000 
